<mxfile host="app.diagrams.net" modified="2024-03-08T21:29:19.953Z" agent="Mozilla/5.0 (Windows NT 10.0; Win64; x64) AppleWebKit/537.36 (KHTML, like Gecko) Chrome/122.0.0.0 Safari/537.36" version="24.0.2" etag="O-F_7Rr9vL_Dn3jOR_SE" type="github">
  <diagram name="Page-1" id="2kGUB3ww98quODUFWnMx">
    <mxGraphModel>
      <root>
        <mxCell id="0" />
        <mxCell id="1" parent="0" />
      </root>
    </mxGraphModel>
  </diagram>
</mxfile>
